<svg width="100" height="100" viewBox="0 0 100 100" fill="none" xmlns="http://www.w3.org/2000/svg">
<g clip-path="url(#clip0_4_2)">
<g filter="url(#filter0_d_4_2)">
<path d="M26.4309 85.646L28.0656 86.4541C34.8781 90.4938 42.5074 92.3792 50.1371 92.3792C74.1156 92.3792 93.7344 72.9877 93.7344 49.2869C93.7344 37.9753 89.1019 26.9328 80.9277 18.8529C72.7531 10.773 61.8535 6.1946 50.1371 6.1946C26.1586 6.1946 6.53945 25.5861 6.8121 49.5564C6.8121 57.6359 9.26445 65.4467 13.3516 72.1796L14.4414 73.7958L10.082 89.6861L26.4309 85.646Z" fill="#181743"/>
</g>
<g filter="url(#filter1_d_4_2)">
<path d="M85.5598 14.5436C76.2953 5.11737 63.4887 0 50.4094 0C22.6164 0 0.272656 22.3541 0.544922 49.556C0.544922 58.1745 2.99727 66.5239 7.08477 74.0649L0 99.651L26.4309 92.9178C33.7879 96.9579 41.9621 98.8432 50.1371 98.8432C77.6578 98.8432 100.002 76.4888 100.002 49.2873C100.002 36.09 94.8242 23.7008 85.5602 14.5436H85.5598ZM50.4094 90.4942C43.0523 90.4942 35.6953 88.6093 29.4281 84.8386L27.7934 84.0305L11.9895 88.0703L16.0766 72.7189L14.9867 71.1027C2.99727 51.9807 8.71953 26.6633 28.3383 14.8127C47.957 2.96255 73.298 8.61853 85.2875 28.01C97.2766 47.4015 91.5543 72.449 71.9359 84.2996C65.6684 88.3394 58.0391 90.4938 50.4094 90.4938V90.4942ZM74.3879 60.5992L71.3906 59.2525C71.3906 59.2525 67.0312 57.3672 64.3062 56.0205C64.0336 56.0205 63.7613 55.751 63.4887 55.751C62.6711 55.751 62.1262 56.0205 61.5812 56.29C61.5812 56.29 61.309 56.5591 57.4941 60.8683C57.2215 61.4069 56.6766 61.6764 56.1316 61.6764H55.859C55.5867 61.6764 55.0418 61.4069 54.7691 61.1378L53.4066 60.5992C50.4094 59.2525 47.6848 57.6363 45.5047 55.4819C44.9598 54.9432 44.1422 54.4046 43.5973 53.866C41.6898 51.9807 39.7824 49.8259 38.4203 47.4019L38.1477 46.8633C37.8754 46.5938 37.8754 46.3247 37.6027 45.7861C37.6027 45.2475 37.6027 44.7089 37.8754 44.4394C37.8754 44.4394 38.9652 43.0927 39.7824 42.2849C40.3277 41.7459 40.6 40.9382 41.1449 40.3996C41.6898 39.5915 41.9625 38.5143 41.6898 37.7062C41.4176 36.3595 38.1477 29.0876 37.3305 27.4718C36.7852 26.6637 36.2406 26.3946 35.423 26.1251H32.4258C31.8805 26.1251 31.3359 26.3946 30.7906 26.3946L30.518 26.6637C29.973 26.9332 29.4281 27.4718 28.8832 27.7409C28.3383 28.2799 28.0656 28.8181 27.5207 29.3571C25.6133 31.7811 24.5234 34.7436 24.5234 37.7062C24.5234 39.8606 25.0684 42.0154 25.8859 43.9008L26.1586 44.7089C28.6109 49.8259 31.8805 54.4046 36.2406 58.4444L37.3305 59.5216C38.1477 60.3297 38.9652 60.8683 39.5102 61.6761C45.2324 66.5243 51.7719 70.0255 59.1289 71.9108C59.9465 72.1799 61.0363 72.1799 61.8539 72.4494H64.5785C65.941 72.4494 67.5758 71.9108 68.666 71.3722C69.4832 70.8336 70.0281 70.8336 70.5731 70.295L71.1184 69.756C71.6633 69.2174 72.2082 68.9483 72.7531 68.4097C73.298 67.871 73.843 67.3324 74.1156 66.7934C74.6605 65.7162 74.9328 64.3695 75.2055 63.0232V61.1378C75.2055 61.1378 74.9328 60.8683 74.3879 60.5992Z" fill="white"/>
</g>
</g>
<defs>
<filter id="filter0_d_4_2" x="2.8093" y="6.1946" width="94.9251" height="94.1846" filterUnits="userSpaceOnUse" color-interpolation-filters="sRGB">
<feFlood flood-opacity="0" result="BackgroundImageFix"/>
<feColorMatrix in="SourceAlpha" type="matrix" values="0 0 0 0 0 0 0 0 0 0 0 0 0 0 0 0 0 0 127 0" result="hardAlpha"/>
<feOffset dy="4"/>
<feGaussianBlur stdDeviation="2"/>
<feComposite in2="hardAlpha" operator="out"/>
<feColorMatrix type="matrix" values="0 0 0 0 0 0 0 0 0 0 0 0 0 0 0 0 0 0 0.25 0"/>
<feBlend mode="normal" in2="BackgroundImageFix" result="effect1_dropShadow_4_2"/>
<feBlend mode="normal" in="SourceGraphic" in2="effect1_dropShadow_4_2" result="shape"/>
</filter>
<filter id="filter1_d_4_2" x="-4" y="0" width="108.002" height="107.651" filterUnits="userSpaceOnUse" color-interpolation-filters="sRGB">
<feFlood flood-opacity="0" result="BackgroundImageFix"/>
<feColorMatrix in="SourceAlpha" type="matrix" values="0 0 0 0 0 0 0 0 0 0 0 0 0 0 0 0 0 0 127 0" result="hardAlpha"/>
<feOffset dy="4"/>
<feGaussianBlur stdDeviation="2"/>
<feComposite in2="hardAlpha" operator="out"/>
<feColorMatrix type="matrix" values="0 0 0 0 0 0 0 0 0 0 0 0 0 0 0 0 0 0 0.25 0"/>
<feBlend mode="normal" in2="BackgroundImageFix" result="effect1_dropShadow_4_2"/>
<feBlend mode="normal" in="SourceGraphic" in2="effect1_dropShadow_4_2" result="shape"/>
</filter>
<clipPath id="clip0_4_2">
<rect width="100" height="100" fill="white"/>
</clipPath>
</defs>
</svg>
